<svg xmlns="http://www.w3.org/2000/svg" xmlns:xlink="http://www.w3.org/1999/xlink" version="1.1" x="0px" y="0px" viewBox="0 0 100 125" style="enable-background:new 0 0 100 100;" xml:space="preserve"><path d="M96.7,40.45h-4.57c1.09-1.35,1.68-3.01,1.68-4.77c0-2.54-1.26-4.8-3.18-6.18c0.34-0.24,0.66-0.51,0.96-0.81  c1.43-1.43,2.22-3.34,2.22-5.37c0-2.54-1.26-4.8-3.19-6.18c0.34-0.24,0.66-0.51,0.96-0.81c1.43-1.43,2.22-3.34,2.22-5.37  c0-4.19-3.41-7.59-7.59-7.59H13.78c-2.03,0-3.94,0.79-5.37,2.22c-1.43,1.43-2.22,3.34-2.22,5.37c0,2.54,1.26,4.8,3.18,6.18  c-0.34,0.24-0.66,0.51-0.96,0.81c-1.43,1.43-2.22,3.34-2.22,5.37c0,2.54,1.26,4.8,3.18,6.18c-0.34,0.24-0.66,0.51-0.96,0.81  c-1.43,1.43-2.22,3.34-2.22,5.37c0,1.8,0.63,3.46,1.69,4.77H3.3c-1.82,0-3.3,1.48-3.3,3.3v4.44c0,1.82,1.48,3.3,3.3,3.3h1.83  c1.29,5.55,7.01,29.99,9.87,39.11c0.91,2.9,3.6,6.02,7.36,6.02h55.27c3.76,0,6.45-3.12,7.36-6.02c2.86-9.12,8.58-33.56,9.87-39.11  h1.83c1.82,0,3.3-1.48,3.3-3.3v-4.44C100,41.93,98.52,40.45,96.7,40.45z M89.59,26.7c-0.9,0.9-2.1,1.4-3.37,1.4H73.93l1.41-3.35  h9.06c0.78,0,1.42-0.63,1.42-1.42c0-0.78-0.63-1.42-1.42-1.42h-7.88l1.41-3.35h8.28c2.63,0,4.76,2.14,4.76,4.76  C90.98,24.6,90.49,25.8,89.59,26.7z M63.74,22.82c-0.01-0.02-0.02-0.05-0.03-0.07l-4.33-10.31h18.06l-8.48,20.19  c-0.18,0.26-0.44,0.28-0.56,0.28c-0.11,0-0.38-0.03-0.56-0.28L63.74,22.82z M10.42,7.6c0.9-0.9,2.09-1.39,3.37-1.39h72.44  c2.63,0,4.76,2.14,4.76,4.76c0,1.27-0.5,2.47-1.4,3.37c-0.9,0.9-2.1,1.4-3.37,1.4c-0.01,0-0.02,0-0.04,0h-7.06l1.39-3.3h3.89  c0.78,0,1.42-0.63,1.42-1.42S85.18,9.6,84.4,9.6h-4.83c-0.01,0-0.01,0-0.02,0H57.26c-0.01,0-0.01,0-0.02,0H14.61  c-0.78,0-1.42,0.63-1.42,1.42s0.63,1.42,1.42,1.42h41.69l1.39,3.3H18.75c-0.01,0-0.02,0-0.04,0h-4.93c-2.63,0-4.76-2.14-4.76-4.77  C9.02,9.69,9.51,8.5,10.42,7.6z M9.02,23.33c0-1.27,0.5-2.47,1.4-3.37c0.9-0.9,2.09-1.39,3.37-1.39h45.1l1.41,3.35H14.62  c-0.78,0-1.42,0.63-1.42,1.42c0,0.78,0.63,1.42,1.42,1.42h46.86l1.41,3.35h-49.1C11.16,28.09,9.02,25.95,9.02,23.33z M9.02,35.69  c0-1.27,0.5-2.47,1.4-3.37c0.9-0.9,2.1-1.4,3.37-1.4h50.29l1.22,2.9c0.02,0.06,0.05,0.11,0.08,0.16c0.64,1.1,1.77,1.76,3.04,1.76  c1.27,0,2.41-0.66,3.04-1.76c0.03-0.05,0.06-0.11,0.08-0.16l1.22-2.9h13.47c2.63,0,4.76,2.14,4.76,4.76c0,1.27-0.5,2.47-1.4,3.37  c-0.9,0.9-2.09,1.39-3.37,1.39H13.78C11.16,40.45,9.02,38.31,9.02,35.69z M77.64,93.8H22.36c-2.23,0-4.03-2.03-4.66-4.03  c-0.1-0.31-0.2-0.64-0.3-0.99h65.2c-0.1,0.35-0.2,0.68-0.3,0.99C81.67,91.77,79.87,93.8,77.64,93.8z M83.41,85.95  c-0.01,0-0.03,0-0.04,0H16.59C13.72,75.68,9.37,57.21,8.04,51.5h26.15v3.13c0,3.38,2.75,6.13,6.13,6.13h19.36  c3.38,0,6.13-2.75,6.13-6.13V51.5h26.15C90.63,57.21,86.28,75.68,83.41,85.95z M97.17,48.2c0,0.26-0.21,0.47-0.47,0.47H64.4  c-0.78,0-1.42,0.63-1.42,1.42v4.54c0,1.82-1.48,3.3-3.3,3.3H40.32c-1.82,0-3.3-1.48-3.3-3.3v-4.54c0-0.78-0.63-1.42-1.42-1.42H3.3  c-0.26,0-0.47-0.21-0.47-0.47v-4.44c0-0.26,0.21-0.47,0.47-0.47h10.48h72.44H96.7c0.26,0,0.47,0.21,0.47,0.47V48.2z M58.43,46.06  l-16.87,0c-0.78,0-1.41,0.63-1.41,1.42v5.56c0,1.14,0.82,2.04,1.86,2.04h15.98c1.04,0,1.86-0.9,1.86-2.04v-5.56  c0-0.38-0.15-0.74-0.41-1C59.17,46.21,58.81,46.06,58.43,46.06z M57.02,52.25H42.98V48.9l14.04,0V52.25z M74.74,79.22l3.9-17.14  c0.17-0.76,0.93-1.24,1.69-1.07c0.76,0.17,1.24,0.93,1.07,1.69l-3.9,17.14c-0.15,0.66-0.73,1.1-1.38,1.1c-0.1,0-0.21-0.01-0.32-0.04  C75.05,80.74,74.57,79.98,74.74,79.22z M65.72,66.46l-2.53,13.34c-0.13,0.68-0.72,1.15-1.39,1.15c-0.09,0-0.18-0.01-0.27-0.03  c-0.77-0.15-1.27-0.89-1.13-1.65l2.53-13.34c0.15-0.77,0.89-1.27,1.65-1.13C65.36,64.95,65.86,65.69,65.72,66.46z M25.26,79.22  c0.17,0.76-0.3,1.52-1.07,1.69c-0.11,0.02-0.21,0.04-0.32,0.04c-0.65,0-1.23-0.45-1.38-1.1l-3.9-17.14  c-0.17-0.76,0.3-1.52,1.07-1.69c0.76-0.17,1.52,0.3,1.69,1.07L25.26,79.22z M39.6,79.27c0.15,0.77-0.36,1.51-1.13,1.65  c-0.09,0.02-0.18,0.03-0.27,0.03c-0.67,0-1.26-0.47-1.39-1.15l-2.53-13.34c-0.15-0.77,0.36-1.51,1.13-1.65  c0.77-0.15,1.51,0.36,1.65,1.13L39.6,79.27z M51.42,66.19v13.34c0,0.78-0.63,1.42-1.42,1.42s-1.42-0.63-1.42-1.42V66.19  c0-0.78,0.63-1.42,1.42-1.42S51.42,65.41,51.42,66.19z M61.99,35.69c0,0.78-0.63,1.42-1.42,1.42H14.61c-0.78,0-1.42-0.63-1.42-1.42  c0-0.78,0.63-1.42,1.42-1.42h45.96C61.35,34.27,61.99,34.91,61.99,35.69z M86.14,37.1h-9.55c-0.78,0-1.42-0.63-1.42-1.42  c0-0.78,0.63-1.42,1.42-1.42h9.55c0.78,0,1.42,0.63,1.42,1.42C87.56,36.47,86.92,37.1,86.14,37.1z"/></svg>
